# xmcd
#
# Track frame offsets:
#	150
#	18074
#	30642
#	52298
#	77226
#	101645
#
# Disc length: 1961 seconds
# Revision: 0
# Processed by: cddbd v1.5.2PL0 Copyright (c) Steve Scherf et al.
# Submitted via: dBpowerAMP V12.0
#
DISCID=4407a706
DTITLE=North Mississippi Allstars - Miramar Theatre, Milwaukee, WI
DYEAR=2002
DGENRE=Blues
TTITLE0=The Thrill Is Gone
TTITLE1=Leavin
TTITLE2=Snakes In My Bushes
TTITLE3=Storm
TTITLE4=Shake 'em On Down
TTITLE5=All Night Long > Lovelight
EXTD=
EXTT0=
EXTT1=
EXTT2=
EXTT3=
EXTT4=
EXTT5=
PLAYORDER=
